<svg xmlns="http://www.w3.org/2000/svg" width="41.139" height="31" viewBox="0 0 41.139 31"><g transform="translate(0.639)"><path d="M-555.727,111.89h-25.087a2.013,2.013,0,0,1-1.58-.771L-593.686,96.89-582.4,82.662a2.015,2.015,0,0,1,1.581-.772h25.087a2.076,2.076,0,0,1,2.041,2.1h0c0,.076,0,.169,0,.29v25.5A2.076,2.076,0,0,1-555.727,111.89Z" transform="translate(593.686 -81.39)" fill="none" stroke="#ccc" stroke-miterlimit="10" stroke-width="1"></path><g transform="translate(12.5 3)"><rect width="25" height="25" fill="none"></rect><path d="M13.264,11.5l5.375-5.362a1.255,1.255,0,0,0-1.775-1.775L11.5,9.738,6.139,4.364A1.255,1.255,0,1,0,4.364,6.138L9.739,11.5,4.364,16.863a1.255,1.255,0,1,0,1.775,1.775L11.5,13.263l5.362,5.375a1.255,1.255,0,1,0,1.775-1.775Z" transform="translate(0.998 0.999)"></path></g></g></svg>