<svg xmlns="http://www.w3.org/2000/svg" width="32" height="32" viewBox="0 0 32 32" fill="none">
                    <path d="M28 26.58L20.05 18.63C21.28 17.09 22.03 15.13 22.03 13.01C22.03 8.04 17.99 4 13.02 4C8.05 4 4 8.04 4 13.01C4 17.98 8.04 22.02 13.02 22.02C15.15 22.02 17.1 21.28 18.64 20.05L26.59 28L28.01 26.58H28ZM13.02 20.02C9.15 20.02 6.01 16.87 6.01 13.01C6.01 9.15 9.16 6 13.02 6C16.88 6 20.03 9.15 20.03 13.01C20.03 16.87 16.88 20.02 13.02 20.02Z" fill="#231F20"></path>
                  </svg>